PathFileType	4	(X/Y/Z)	/home/abdul/Desktop/myosuite/custom_workspace/IK/output/S14_12_1.trc
DataRate	CameraRate	NumFrames	NumMarkers	Units	OrigDataRate	OrigDataStartFrame	OrigNumFrames
200.0	200.0	39	3	mm	200.0	1531	2040
Frame#	Time	V_Shoulder			V_Elbow			V_Wrist		
		X1	Y1	Z1	X2	Y2	Z2	X3	Y3	Z3

1531	7.65	-159.84564269857344	674.3321954265806	311.78415762060837	-182.40021570151183	455.9265110345778	40.69063748153009	-61.05115886617608	246.47567654908025	103.29695366692161
1532	7.655	-159.79323957322947	674.2375129764499	311.80995497630744	-182.2479536207153	455.83699161629625	40.67498830757413	-60.999710064704324	246.16389684721577	102.71805038413792
1533	7.66	-159.74119722420338	674.1433578878311	311.8357996521972	-182.09745997498436	455.74846740823455	40.660119764296105	-60.94976023758846	245.85572149945415	102.14330195257685
1534	7.665	-159.68951438916423	674.049731588786	311.8616902155815	-181.9487043109835	455.66093612177264	40.646001828727805	-60.90122472899417	245.55113492367985	101.57269254285387
1535	7.67	-159.63818987935727	673.9566355686535	311.88762510792566	-181.80165632379232	455.5743948962619	40.63260428415009	-60.85401958336813	245.2501228059508	101.00620666289868
1536	7.675	-159.58722257990198	673.8640713799033	311.91360264055726	-181.65628596013624	455.4888403848938	40.61989669297567	-60.80806176781141	244.95267209462182	100.44382892943045
1537	7.68	-159.53661144974475	673.7720406408949	311.9396209909814	-181.51256351828243	455.4042688394886	40.60784837313809	-60.76326938920894	244.65877099096525	99.88554384768538
1538	7.685	-159.48635552128167	673.680545039503	311.9656781998132	-181.3704597443013	455.3206761936889	40.596428378398755	-60.71956190558729	244.3684089358231	99.33133560092216
1539	7.69	-159.4364538996669	673.5895863375692	311.9917721683344	-181.22994592441444	455.23805814406353	40.5856054829614	-60.67686033119737	244.08157659185042	98.78118785117049
1540	7.695	-159.38690576182248	673.4991663761353	312.0179006566732	-181.09099397317277	455.1564102286468	40.57534817075811	-60.63508743484263	243.79826582093818	98.23508355261866
1541	7.7	-159.33771035516588	673.4092870814139	312.0440612826081	-180.95357651723089	455.07572790245723	40.565624629742985	-60.594167930998076	243.51846965643836	97.69300477895843
1542	7.705	-159.2888669960715	673.3199504714476	312.0702515209955	-180.8176669745087	454.9960066095723	40.556402751498624	-60.554028663290474	243.24218226985013	97.15493256592069
1543	7.71	-159.24037506808335	673.2311586634074	312.09646870381465	-180.68323962855413	454.9172418513552	40.54765013642773	-60.514598779935525	242.96939893166703	96.62084677014334
1544	7.715	-159.19223401989544	673.142913881479	312.1227100208272	-180.55026969794636	454.83942925046733	40.539334104766226	-60.47580990075378	242.70011596612864	96.09072594541304
1545	7.72	-159.14444336311723	673.0552184652819	312.1489725208429	-180.41873340060312	454.7625646103263	40.531421713617284	-60.43759627541323	242.434330699667	95.5645472372174
1546	7.725	-159.09700266984126	672.9680748787683	312.1752531135824	-180.2886080128813	454.68664396970667	40.523879780166006	-60.399894932573176	242.1720414028875	95.04228629643187
1547	7.73	-159.04991157003053	672.8814857195471	312.2015485721274	-180.15987192338457	454.6116636522118	40.51667491119378	-60.36264581963147	241.9132472259755	94.52391721284897
1548	7.735	-159.00316974874252	672.7954537285718	312.22785553594474	-180.03250468141795	454.53762031038616	40.50977353896905	-60.32579193280438	241.6579481274718	94.00941246913554
1549	7.74	-158.9567769432076	672.709981800138	312.2541705144724	-179.90648704005304	454.46451096427216	40.503141963547975	-60.28927943729678	241.4061447964166	93.49874291567704
1550	7.745	-158.91073293977843	672.6250729921313	312.28048989124983	-179.78180099379358	454.39233303425476	40.4967464014744	-60.25305777734888	241.1578385679155	92.99187776663842
1551	7.75	-158.86503757076866	672.5407305364638	312.30680992857725	-179.6584298108545	454.32108436807755	40.49055304082361	-60.21707977597475	240.9130313322377	92.48878461743779
1552	7.755	-158.8196907111969	672.4569578496435	312.33312677268447	-179.5363580600926	454.250763261952	40.484528102489755	-60.181301724237656	240.67172543761308	91.98942948369381
1553	7.76	-158.774692275453	672.3737585434134	312.35943645939	-179.41557163264994	454.1813684757236	40.47863790757147	-60.145683459937466	240.43392358694967	91.49377686157125
1554	7.765	-158.73004221390457	672.2911364354036	312.38573492022965	-179.29605775839485	454.112899242097	40.47284895066596	-60.110188435616166	240.19962872874922	91.00178980931022
1555	7.77	-158.68574050945838	672.2090955597347	312.4120179890311	-179.17780501726656	454.04535526996324	40.46712797883715	-60.074783775818226	239.96884394255267	90.51343004958764
1556	7.775	-158.64178717409462	672.127640177514	312.43828140891213	-179.06080334565195	453.9787367419109	40.4614420759804	-60.03944032357508	239.74157231929908	90.02865809222095
1557	7.78	-158.59818224538893	672.0467747871666	312.46452083967665	-178.94504403794332	453.9130443060426	40.4557587522641	-60.004132676114544	239.51781683703305	89.54743337658832
1558	7.785	-158.55492578303864	671.9665041345421	312.4907318655834	-178.83051974344517	453.8482790622545	40.450046038287105	-59.96883920982885	239.29758023244372	89.06971443300493
1559	7.79	-158.51201786540787	671.8868332227416	312.5169100034606	-178.71722445881716	453.78444254317515	40.44427258355187	-59.933542094567876	239.0808648687643	88.59545906216366
1560	7.795	-158.46945858610687	671.8077673216059	312.54305071113845	-178.6051535162579	453.7215366899933	40.438407758815565	-59.89822729735759	238.86767260060458	88.1246245316201
1561	7.8	-158.42724805061997	671.729311976813	312.56914939617224	-178.49430356764998	453.6595638234405	40.43242176184574	-59.86288457567698	238.65800463632667	87.65716778817864
1562	7.805	-158.38538637299595	671.6514730185307	312.595201424826	-178.38467256490242	453.5985266102242	40.426285726074234	-59.827507460460495	238.45186139861204	87.19304568491722
1563	7.81	-158.34387367261505	671.574256569569	312.6212021312868	-178.27625973673946	453.5384280252378	40.41997183161206	-59.79209322902678	238.24924238389863	86.7322152214762
1564	7.815	-158.3027100710447	671.4976690529865	312.64714682708103	-178.16906556219752	453.47927130990473	40.41345341805997	-59.75664286816789	238.05014602139534	86.27463379612914
1565	7.82	-158.26189568899755	671.4217171991005	312.67303081066046	-178.06309174110277	453.42105992703466	40.40670509852465	-59.72116102766654	237.85456953240538	85.82025946805553
1566	7.825	-158.22143064340278	671.3464080518511	312.6988493771282	-177.95834116181112	453.36379751259796	40.39970287422785	-59.685655964542164	237.66250879070816	85.36905122814267
1567	7.83	-158.1813150446028	671.2717489744782	312.72459782807283	-177.85481786650044	453.3074878248432	40.39242424907758	-59.65013947835865	237.47395818476582	84.92096927656237
1568	7.835	-158.14154899368577	671.1977476544663	312.7502714814793	-177.75252701431003	453.25213469120183	40.384848343554275	-59.614626837958916	237.28891048252837	84.47597530529272
1569	7.84	-158.1021325799641	671.1244121077166	312.775865681686	-177.65147484262818	453.19774195343797	40.37695600725344	-59.579136700022154	237.1073566996179	84.03403278369268
